<svg width="17" height="17" viewBox="0 0 17 17" fill="none" xmlns="http://www.w3.org/2000/svg">
<rect width="17" height="17" rx="4" fill="#28C278"/>
<path d="M2.184 13.312C1.656 13.312 1.28 13.164 1.056 12.868C0.832 12.564 0.72 12.116 0.72 11.524C0.72 10.924 0.972 9.232 1.476 6.448L0.84 5.164C1.744 4.58 2.568 4.288 3.312 4.288C3.928 4.288 4.236 4.664 4.236 5.416C4.236 5.64 4.08 6.576 3.768 8.224C3.464 9.872 3.312 10.92 3.312 11.368H4.608C5.216 11.28 5.828 11.124 6.444 10.9C6.492 11.044 6.516 11.24 6.516 11.488C6.516 11.96 6.376 12.38 6.096 12.748C5.824 13.116 5.444 13.3 4.956 13.3C4.628 13.3 4.06 13.212 3.252 13.036C2.916 13.22 2.56 13.312 2.184 13.312ZM15.5259 12.772C15.0459 13.132 14.5739 13.312 14.1099 13.312C13.6459 13.312 13.2779 13.192 13.0059 12.952C12.7339 12.712 12.5979 12.352 12.5979 11.872C12.5979 11.736 12.6019 11.632 12.6099 11.56L12.4899 11.524C11.6979 12.708 10.6339 13.3 9.29794 13.3C8.00994 13.3 7.36594 12.62 7.36594 11.26C7.36594 10.804 7.42994 10.2 7.55794 9.448C7.68594 8.688 7.79394 8.048 7.88194 7.528C7.97794 7 8.04194 6.64 8.07394 6.448L7.43794 5.164C7.94194 4.876 8.37794 4.66 8.74594 4.516C9.12194 4.372 9.49794 4.3 9.87394 4.3C10.2499 4.3 10.5019 4.4 10.6299 4.6C10.7659 4.792 10.8339 5.024 10.8339 5.296C10.8339 5.568 10.6979 6.44 10.4259 7.912C10.1619 9.384 10.0299 10.244 10.0299 10.492C10.0299 11.124 10.2459 11.44 10.6779 11.44C10.9979 11.44 11.3619 11.236 11.7699 10.828C12.1779 10.42 12.5099 9.86 12.7659 9.148C12.5979 8.66 12.5139 8.156 12.5139 7.636C12.5139 6.708 12.7419 5.92 13.1979 5.272C13.6619 4.624 14.3139 4.3 15.1539 4.3C15.6179 4.3 15.9899 4.376 16.2699 4.528C16.1979 4.96 16.0579 5.744 15.8499 6.88C15.3939 9.288 15.1659 10.672 15.1659 11.032C15.1659 11.808 15.2859 12.388 15.5259 12.772Z" fill="white"/>
</svg>
