<svg width="108" height="15" viewBox="0 0 108 15" fill="none" xmlns="http://www.w3.org/2000/svg">
<path d="M16.184 12.312C15.656 12.312 15.28 12.164 15.056 11.868C14.832 11.564 14.72 11.116 14.72 10.524C14.72 9.924 14.972 8.232 15.476 5.448L14.84 4.164C15.744 3.58 16.568 3.288 17.312 3.288C17.928 3.288 18.236 3.664 18.236 4.416C18.236 4.64 18.08 5.576 17.768 7.224C17.464 8.872 17.312 9.92 17.312 10.368H18.608C19.216 10.28 19.828 10.124 20.444 9.9C20.492 10.044 20.516 10.24 20.516 10.488C20.516 10.96 20.376 11.38 20.096 11.748C19.824 12.116 19.444 12.3 18.956 12.3C18.628 12.3 18.06 12.212 17.252 12.036C16.916 12.22 16.56 12.312 16.184 12.312ZM23.2619 12.3C22.5579 12.3 22.0659 12.128 21.7859 11.784C21.5059 11.44 21.3659 11.008 21.3659 10.488C21.3659 9.96 21.4539 9.24 21.6299 8.328C21.8059 7.416 21.8939 6.756 21.8939 6.348C21.8939 5.94 21.8099 5.62 21.6419 5.388C22.3859 4.996 23.0139 4.8 23.5259 4.8C23.8539 4.8 24.0899 4.868 24.2339 5.004C24.3859 5.132 24.4619 5.344 24.4619 5.64C24.4619 5.936 24.3379 6.664 24.0899 7.824C23.8499 8.976 23.7299 9.688 23.7299 9.96C23.7299 10.232 23.8059 10.448 23.9579 10.608C24.1099 10.76 24.3099 10.836 24.5579 10.836C24.8059 10.836 25.0699 10.74 25.3499 10.548C25.6299 10.348 25.8579 10.068 26.0339 9.708C26.1459 9.06 26.3659 8.036 26.6939 6.636L25.9739 5.676C26.7819 5.092 27.5499 4.8 28.2779 4.8C28.6379 4.8 28.8939 4.868 29.0459 5.004C29.2059 5.132 29.2859 5.332 29.2859 5.604C29.2859 5.868 29.1379 6.632 28.8419 7.896C28.5539 9.16 28.4099 10.06 28.4099 10.596C28.4099 11.124 28.5339 11.496 28.7819 11.712C28.3339 12.104 27.8619 12.3 27.3659 12.3C26.8779 12.3 26.5259 12.192 26.3099 11.976C26.0939 11.76 25.9859 11.476 25.9859 11.124L25.8659 11.064C25.6019 11.448 25.2339 11.752 24.7619 11.976C24.2979 12.192 23.7979 12.3 23.2619 12.3ZM31.79 12.3C31.318 12.3 30.97 12.176 30.746 11.928C30.522 11.68 30.41 11.352 30.41 10.944C30.41 10.536 30.49 9.872 30.65 8.952C30.818 8.032 30.99 7.192 31.166 6.432L30.542 5.472C31.334 5.024 32.066 4.8 32.738 4.8C33.41 4.8 33.746 5.104 33.746 5.712C33.746 6.112 33.654 6.52 33.47 6.936L33.59 6.996C34.446 5.532 35.534 4.8 36.854 4.8C37.822 4.8 38.306 5.284 38.306 6.252C38.306 6.668 38.186 7.372 37.946 8.364C37.714 9.356 37.598 10.104 37.598 10.608C37.598 11.112 37.682 11.48 37.85 11.712C37.426 12.104 36.978 12.3 36.506 12.3C35.586 12.3 35.126 11.804 35.126 10.812C35.126 10.444 35.246 9.82 35.486 8.94C35.726 8.06 35.846 7.488 35.846 7.224C35.846 6.864 35.71 6.684 35.438 6.684C35.214 6.684 34.958 6.784 34.67 6.984C34.382 7.176 34.102 7.44 33.83 7.776C33.566 8.104 33.342 8.524 33.158 9.036C32.974 9.54 32.882 10.056 32.882 10.584C32.882 11.104 32.966 11.48 33.134 11.712C32.71 12.104 32.262 12.3 31.79 12.3ZM43.9678 10.524L43.8478 10.464C43.6318 11.04 43.3198 11.492 42.9118 11.82C42.5118 12.14 42.0638 12.3 41.5678 12.3C40.8878 12.3 40.3438 12.044 39.9358 11.532C39.5278 11.02 39.3238 10.336 39.3238 9.48C39.3238 8.152 39.7678 7.04 40.6558 6.144C41.5518 5.248 42.6638 4.8 43.9918 4.8C44.3358 4.8 44.6518 4.832 44.9398 4.896C44.9878 5.12 45.0158 5.316 45.0238 5.484C45.4238 5.228 45.8358 5.1 46.2598 5.1C46.8438 5.1 47.1358 5.416 47.1358 6.048C47.1358 6.272 47.0078 6.948 46.7518 8.076C46.5038 9.204 46.3798 10.04 46.3798 10.584C46.3798 11.128 46.5038 11.504 46.7518 11.712C46.3038 12.104 45.8358 12.3 45.3478 12.3C44.8678 12.3 44.5158 12.156 44.2918 11.868C44.0758 11.58 43.9678 11.132 43.9678 10.524ZM41.5798 8.892C41.5798 9.284 41.6598 9.588 41.8198 9.804C41.9878 10.012 42.2238 10.116 42.5278 10.116C42.8318 10.116 43.1318 10.004 43.4278 9.78C43.7238 9.556 43.9718 9.248 44.1718 8.856C44.2438 8.048 44.3998 7.092 44.6398 5.988C43.8318 5.988 43.1198 6.28 42.5038 6.864C41.8878 7.448 41.5798 8.124 41.5798 8.892ZM51.6373 8.316C51.6373 7.756 51.7573 7.188 51.9973 6.612C52.2373 6.028 52.5773 5.488 53.0173 4.992C53.4573 4.496 54.0293 4.092 54.7333 3.78C55.4453 3.46 56.1773 3.3 56.9293 3.3C57.6893 3.3 58.2813 3.44 58.7053 3.72C59.1373 4 59.3533 4.388 59.3533 4.884C59.3533 5.38 59.1893 5.768 58.8613 6.048C58.5413 6.32 58.1733 6.456 57.7573 6.456C57.3413 6.456 56.9653 6.368 56.6293 6.192C56.3013 6.008 56.0373 5.748 55.8373 5.412C55.4053 5.62 55.0333 6.028 54.7213 6.636C54.4093 7.244 54.2533 7.856 54.2533 8.472C54.2533 9.08 54.3533 9.564 54.5533 9.924C54.7533 10.276 55.0373 10.452 55.4053 10.452C55.7733 10.452 56.0973 10.264 56.3773 9.888C56.6653 9.512 56.8093 9.06 56.8093 8.532C57.6173 8.532 58.1933 8.596 58.5373 8.724C58.8893 8.852 59.0653 9.128 59.0653 9.552C59.0653 10.216 58.7053 10.84 57.9853 11.424C57.2653 12.008 56.3613 12.3 55.2733 12.3C54.1853 12.3 53.3053 11.964 52.6333 11.292C51.9693 10.62 51.6373 9.628 51.6373 8.316ZM64.5928 10.524L64.4728 10.464C64.2568 11.04 63.9448 11.492 63.5368 11.82C63.1368 12.14 62.6888 12.3 62.1928 12.3C61.5128 12.3 60.9688 12.044 60.5608 11.532C60.1528 11.02 59.9488 10.336 59.9488 9.48C59.9488 8.152 60.3928 7.04 61.2808 6.144C62.1768 5.248 63.2888 4.8 64.6168 4.8C64.9608 4.8 65.2768 4.832 65.5648 4.896C65.6128 5.12 65.6408 5.316 65.6488 5.484C66.0488 5.228 66.4608 5.1 66.8848 5.1C67.4688 5.1 67.7608 5.416 67.7608 6.048C67.7608 6.272 67.6328 6.948 67.3768 8.076C67.1288 9.204 67.0048 10.04 67.0048 10.584C67.0048 11.128 67.1288 11.504 67.3768 11.712C66.9288 12.104 66.4608 12.3 65.9728 12.3C65.4928 12.3 65.1408 12.156 64.9168 11.868C64.7008 11.58 64.5928 11.132 64.5928 10.524ZM62.2048 8.892C62.2048 9.284 62.2848 9.588 62.4448 9.804C62.6128 10.012 62.8488 10.116 63.1528 10.116C63.4568 10.116 63.7568 10.004 64.0528 9.78C64.3488 9.556 64.5968 9.248 64.7968 8.856C64.8688 8.048 65.0248 7.092 65.2648 5.988C64.4568 5.988 63.7448 6.28 63.1288 6.864C62.5128 7.448 62.2048 8.124 62.2048 8.892ZM73.4887 11.124L73.3687 11.064C72.7447 11.888 72.0007 12.3 71.1367 12.3C70.4967 12.3 69.9527 12.048 69.5047 11.544C69.0647 11.032 68.8447 10.344 68.8447 9.48C68.8447 8.408 69.2207 7.432 69.9727 6.552C70.3407 6.12 70.8327 5.772 71.4487 5.508C72.0647 5.236 72.7527 5.1 73.5127 5.1C73.6567 5.1 73.9127 5.116 74.2807 5.148C74.2967 4.98 74.3327 4.776 74.3887 4.536L73.7167 3.576C74.7167 2.992 75.5047 2.7 76.0807 2.7C76.4087 2.7 76.6407 2.768 76.7767 2.904C76.9127 3.032 76.9807 3.28 76.9807 3.648C76.9807 4.008 76.8007 5.032 76.4407 6.72C76.0887 8.408 75.9127 9.608 75.9127 10.32C75.9127 11.024 76.0367 11.488 76.2847 11.712C75.8367 12.104 75.3687 12.3 74.8807 12.3C74.4007 12.3 74.0487 12.18 73.8247 11.94C73.6007 11.692 73.4887 11.42 73.4887 11.124ZM71.1007 9.024C71.1007 9.48 71.2167 9.84 71.4487 10.104C71.6887 10.368 71.9847 10.5 72.3367 10.5C72.7927 10.5 73.2087 10.284 73.5847 9.852C73.7127 8.428 73.8927 7.196 74.1247 6.156C73.2047 6.156 72.4687 6.452 71.9167 7.044C71.3727 7.636 71.1007 8.296 71.1007 9.024ZM81.2533 12.3C80.1573 12.3 79.3093 12.016 78.7093 11.448C78.1173 10.88 77.8213 10.112 77.8213 9.144C77.8213 7.856 78.2613 6.812 79.1413 6.012C80.0293 5.204 81.1413 4.8 82.4773 4.8C83.2213 4.8 83.7853 4.968 84.1693 5.304C84.5533 5.632 84.7453 6.068 84.7453 6.612C84.7453 7.356 84.3813 7.976 83.6533 8.472C82.9333 8.96 81.8173 9.208 80.3053 9.216C80.3293 9.728 80.4453 10.132 80.6533 10.428C80.8613 10.716 81.1213 10.86 81.4333 10.86C81.7453 10.86 82.0133 10.756 82.2373 10.548C82.4693 10.34 82.5853 10 82.5853 9.528C83.7533 9.528 84.3372 9.804 84.3372 10.356C84.3372 10.828 84.0493 11.272 83.4733 11.688C82.8973 12.096 82.1573 12.3 81.2533 12.3ZM82.2733 6.204C81.8653 6.204 81.4893 6.408 81.1453 6.816C80.8093 7.224 80.5653 7.704 80.4133 8.256C81.2133 8.192 81.8133 8.012 82.2133 7.716C82.6213 7.412 82.8253 7.092 82.8253 6.756C82.8253 6.596 82.7733 6.464 82.6693 6.36C82.5733 6.256 82.4413 6.204 82.2733 6.204ZM87.208 12.3C86.736 12.3 86.388 12.176 86.164 11.928C85.94 11.68 85.828 11.352 85.828 10.944C85.828 10.536 85.908 9.872 86.068 8.952C86.236 8.032 86.408 7.192 86.584 6.432L85.96 5.472C86.752 5.024 87.484 4.8 88.156 4.8C88.828 4.8 89.164 5.104 89.164 5.712C89.164 6.112 89.072 6.52 88.888 6.936L89.008 6.996C89.864 5.532 90.952 4.8 92.272 4.8C93.24 4.8 93.724 5.284 93.724 6.252C93.724 6.668 93.604 7.372 93.364 8.364C93.132 9.356 93.016 10.104 93.016 10.608C93.016 11.112 93.1 11.48 93.268 11.712C92.844 12.104 92.396 12.3 91.924 12.3C91.004 12.3 90.544 11.804 90.544 10.812C90.544 10.444 90.664 9.82 90.904 8.94C91.144 8.06 91.264 7.488 91.264 7.224C91.264 6.864 91.128 6.684 90.856 6.684C90.632 6.684 90.376 6.784 90.088 6.984C89.8 7.176 89.52 7.44 89.248 7.776C88.984 8.104 88.76 8.524 88.576 9.036C88.392 9.54 88.3 10.056 88.3 10.584C88.3 11.104 88.384 11.48 88.552 11.712C88.128 12.104 87.68 12.3 87.208 12.3ZM99.3857 10.524L99.2657 10.464C99.0497 11.04 98.7377 11.492 98.3297 11.82C97.9297 12.14 97.4817 12.3 96.9857 12.3C96.3057 12.3 95.7617 12.044 95.3537 11.532C94.9457 11.02 94.7417 10.336 94.7417 9.48C94.7417 8.152 95.1857 7.04 96.0737 6.144C96.9697 5.248 98.0817 4.8 99.4097 4.8C99.7537 4.8 100.07 4.832 100.358 4.896C100.406 5.12 100.434 5.316 100.442 5.484C100.842 5.228 101.254 5.1 101.678 5.1C102.262 5.1 102.554 5.416 102.554 6.048C102.554 6.272 102.426 6.948 102.17 8.076C101.922 9.204 101.798 10.04 101.798 10.584C101.798 11.128 101.922 11.504 102.17 11.712C101.722 12.104 101.254 12.3 100.766 12.3C100.286 12.3 99.9337 12.156 99.7097 11.868C99.4937 11.58 99.3857 11.132 99.3857 10.524ZM96.9977 8.892C96.9977 9.284 97.0777 9.588 97.2377 9.804C97.4057 10.012 97.6417 10.116 97.9457 10.116C98.2497 10.116 98.5497 10.004 98.8457 9.78C99.1417 9.556 99.3897 9.248 99.5897 8.856C99.6617 8.048 99.8177 7.092 100.058 5.988C99.2497 5.988 98.5377 6.28 97.9217 6.864C97.3057 7.448 96.9977 8.124 96.9977 8.892Z" fill="url(#paint0_linear_1_7)"/>
<path d="M6.69 2C6.32157 2.34331 6.02605 2.75731 5.82109 3.21731C5.61614 3.67731 5.50593 4.17387 5.49704 4.67739C5.48816 5.1809 5.58078 5.68105 5.76939 6.14799C5.95799 6.61493 6.23871 7.0391 6.59481 7.39519C6.9509 7.75129 7.37507 8.03201 7.84201 8.22061C8.30895 8.40922 8.8091 8.50184 9.31261 8.49296C9.81613 8.48407 10.3127 8.37386 10.7727 8.1689C11.2327 7.96394 11.6467 7.66843 11.99 7.3C11.831 9.9175 9.658 11.9905 7.0005 11.9905C4.2385 11.9905 2 9.752 2 6.9905C2 4.333 4.073 2.16 6.69 2Z" fill="#28C278"/>
<defs>
<linearGradient id="paint0_linear_1_7" x1="18" y1="3.99999" x2="115.5" y2="15" gradientUnits="userSpaceOnUse">
<stop stop-color="#73BC99"/>
<stop offset="1" stop-color="#004E28"/>
</linearGradient>
</defs>
</svg>
